#tb 0: 71/1000
#media_type 0: video
#codec_id 0: rawvideo
#dimensions 0: 338x225
#sar 0: 0/1
0,          0,          0,        1,   228150, 0xde68df49
0,          1,          1,        1,   228150, 0x8e12bcaf
0,          2,          2,        1,   228150, 0x851b04f7
0,          3,          3,        1,   228150, 0x7e5e0950
0,          4,          4,        1,   228150, 0x1d92219f
0,          5,          5,        1,   228150, 0x93caa693
